<?xml version="1.0" standalone="no"?>
<!DOCTYPE svg PUBLIC "-//W3C//DTD SVG 20010904//EN"
 "http://www.w3.org/TR/2001/REC-SVG-20010904/DTD/svg10.dtd">
<svg version="1.0" xmlns="http://www.w3.org/2000/svg"
 width="2000.000000pt" height="2000.000000pt" viewBox="0 0 2000.000000 2000.000000"
 preserveAspectRatio="xMidYMid meet">

<g transform="translate(0.000000,2000.000000) scale(0.100000,-0.100000)"
fill="#000000" stroke="none">
<path d="M9465 14464 c-118 -18 -211 -46 -312 -95 -280 -134 -471 -397 -538
-739 -33 -169 -30 -438 7 -687 l10 -72 53 26 c51 25 53 27 59 77 10 75 62 267
103 376 202 540 625 940 1130 1068 57 14 101 27 99 29 -2 2 -52 10 -112 18
-135 18 -379 18 -499 -1z"/>
<path d="M10765 14279 c-22 -5 -65 -16 -96 -25 -43 -12 -61 -14 -77 -5 -70 37
-367 -38 -571 -145 -190 -100 -347 -218 -523 -390 -151 -149 -247 -295 -329
-501 -28 -71 -79 -244 -79 -268 0 -5 25 -23 55 -39 34 -17 81 -57 120 -98 l64
-69 55 67 c134 162 209 348 223 548 l6 89 161 -6 c185 -6 268 -22 521 -97 260
-78 376 -100 551 -107 161 -6 249 6 359 49 136 53 293 187 340 291 101 220 9
419 -219 472 -77 18 -249 21 -341 5 -33 -5 -61 -10 -62 -10 -1 0 13 22 31 49
57 84 55 158 -4 188 -28 14 -125 15 -185 2z"/>
<path d="M10000 12674 c-59 -21 -80 -41 -80 -74 0 -36 12 -39 85 -28 33 5 107
7 164 6 90 -3 105 -1 115 15 41 65 -164 124 -284 81z"/>
<path d="M10722 12616 c-38 -18 -48 -37 -32 -65 9 -18 20 -21 75 -21 35 0 86
-5 114 -11 63 -13 91 -1 91 40 0 49 -31 66 -129 69 -59 1 -96 -2 -119 -12z"/>
<path d="M5685 12591 c-90 -37 -109 -162 -34 -225 86 -72 219 -11 219 101 0
89 -102 157 -185 124z"/>
<path d="M6145 12590 c-11 -4 -33 -21 -48 -38 -78 -82 -14 -218 101 -216 57 0
95 23 116 69 20 42 20 78 -1 122 -28 60 -105 89 -168 63z"/>
<path d="M6585 12580 c-34 -22 -65 -74 -65 -108 0 -36 25 -87 55 -110 85 -67
215 -4 215 105 0 99 -123 167 -205 113z"/>
<path d="M10515 12497 c-17 -41 -32 -151 -40 -297 -8 -139 1 -158 98 -219 72
-46 94 -78 72 -108 -12 -16 -28 -18 -154 -16 -78 1 -141 -2 -141 -7 0 -14 81
-41 144 -47 110 -10 196 31 196 95 0 39 -39 79 -114 117 -48 24 -58 34 -66 66
-11 40 -1 164 25 319 18 101 19 130 4 130 -5 0 -16 -15 -24 -33z"/>
<path d="M10070 12420 c-33 -36 -45 -81 -37 -146 6 -60 38 -94 87 -94 89 0
144 146 87 231 -19 28 -30 35 -65 37 -37 3 -47 -1 -72 -28z"/>
<path d="M10732 12374 c-50 -35 -72 -119 -47 -181 40 -100 147 -71 174 47 23
105 -53 186 -127 134z"/>
<path d="M15774 12081 c-23 -10 -52 -34 -65 -52 -24 -34 -24 -37 -24 -276 0
-228 1 -243 21 -269 11 -15 33 -37 48 -48 27 -21 33 -21 1243 -24 1215 -2
1216 -2 1259 19 26 12 53 36 66 57 22 36 23 45 23 267 0 257 -2 267 -73 315
l-36 25 -1210 2 c-1164 3 -1213 2 -1252 -16z m257 -152 c18 -9 19 -17 13 -67
l-7 -56 24 17 c13 9 37 24 53 33 29 16 31 16 48 -6 25 -30 10 -53 -48 -75
l-47 -18 49 -25 c56 -28 64 -37 57 -63 -8 -30 -41 -33 -76 -7 -59 45 -59 45
-55 -17 2 -46 0 -60 -14 -69 -13 -8 -23 -8 -35 0 -15 9 -17 23 -15 69 l4 57
-48 -32 c-52 -36 -77 -33 -82 12 -3 20 5 28 49 48 l52 25 -52 22 c-42 19 -51
27 -51 47 0 15 8 30 21 36 17 9 26 7 52 -13 61 -45 61 -45 53 11 -5 39 -3 54
9 66 19 19 21 19 46 5z m488 2 c9 -6 12 -25 10 -65 -2 -31 -2 -56 -1 -56 2 0
23 14 46 30 45 33 71 32 81 -1 9 -27 -1 -38 -52 -61 -50 -22 -49 -24 10 -53
32 -15 42 -26 42 -44 0 -44 -29 -49 -80 -13 -25 18 -47 32 -48 32 -1 0 0 -27
1 -59 3 -53 1 -60 -18 -66 -37 -12 -53 12 -48 72 3 29 3 53 2 53 -2 0 -23 -14
-47 -31 -38 -27 -48 -29 -66 -19 -36 19 -23 51 32 77 26 13 47 25 47 27 0 3
-20 14 -44 24 -50 23 -60 34 -51 61 10 33 36 34 81 1 23 -16 44 -30 47 -30 2
0 2 22 -1 50 -6 66 17 96 57 71z m483 -2 c18 -10 19 -17 13 -67 l-7 -56 24 17
c12 9 36 24 52 33 27 15 30 15 49 -4 28 -29 16 -49 -44 -74 l-51 -22 48 -24
c56 -28 64 -37 57 -63 -8 -30 -41 -33 -76 -7 -59 45 -59 45 -55 -17 2 -46 0
-60 -14 -69 -13 -8 -23 -8 -35 0 -15 9 -17 23 -15 69 4 63 5 63 -56 16 -39
-29 -65 -21 -70 22 -3 22 4 28 49 49 l53 24 -52 22 c-42 18 -52 27 -52 47 0
14 8 29 21 35 17 9 26 7 52 -13 61 -45 61 -45 53 11 -5 39 -3 54 9 66 19 19
21 19 47 5z m487 2 c9 -6 12 -25 10 -65 -2 -31 -2 -56 1 -56 3 0 23 14 44 30
45 34 58 36 76 15 22 -27 4 -59 -47 -80 l-47 -21 49 -24 c39 -20 50 -30 50
-49 0 -44 -29 -49 -80 -13 -25 18 -47 32 -48 32 -2 0 -1 -27 1 -59 4 -54 2
-60 -17 -66 -38 -12 -54 12 -49 72 l5 53 -31 -21 c-58 -38 -74 -43 -91 -29
-28 24 -14 53 39 79 l49 24 -46 23 c-53 27 -61 37 -52 63 10 33 36 34 82 1 24
-16 45 -30 48 -30 2 0 1 22 -2 50 -8 66 16 96 56 71z m489 -68 l3 -62 42 30
c49 36 82 35 82 -1 0 -19 -10 -30 -44 -47 -24 -12 -46 -24 -48 -27 -3 -3 18
-16 46 -30 55 -28 67 -57 32 -75 -15 -8 -27 -4 -60 19 -22 17 -44 30 -47 30
-4 0 -4 -23 -2 -50 4 -43 2 -53 -15 -65 -33 -23 -49 -1 -45 62 2 29 -1 53 -5
53 -5 0 -23 -11 -41 -25 -37 -29 -71 -32 -80 -9 -11 28 -7 33 44 59 28 14 50
27 50 30 0 2 -20 14 -44 25 -52 23 -60 33 -51 60 9 27 41 25 81 -5 18 -14 36
-25 41 -25 4 0 7 20 5 45 -5 59 2 77 30 73 21 -3 23 -9 26 -65z"/>
<path d="M10230 11671 c-52 -11 -79 -28 -86 -56 -11 -44 5 -91 48 -139 54 -63
121 -96 192 -96 l55 0 7 38 c16 87 88 180 169 219 19 9 35 20 35 23 0 17 -347
25 -420 11z"/>
<path d="M14115 11650 c-44 -5 -46 -7 -20 -11 l30 -6 -28 -2 c-16 0 -26 -5
-23 -10 3 -5 25 -7 49 -5 33 3 38 2 22 -6 -14 -7 -3 -8 39 -3 52 5 58 4 53
-11 -4 -10 -1 -16 8 -16 8 0 15 -4 15 -10 0 -5 11 -10 24 -10 13 0 26 -6 29
-13 7 -19 61 -10 75 13 10 17 5 22 -54 50 -36 18 -68 29 -72 25 -4 -3 0 -10 8
-15 26 -16 5 -19 -35 -6 -36 13 -37 14 -15 19 16 3 9 5 -20 7 -38 2 -41 3 -20
10 31 10 9 10 -65 0z m261 -87 c-8 -8 -36 10 -36 25 0 13 3 12 20 -3 11 -10
18 -20 16 -22z"/>
<path d="M14005 11628 c-66 -24 -163 -107 -149 -129 3 -5 10 -7 15 -4 11 7 12
-15 1 -33 -14 -21 -44 -3 -37 22 5 18 4 17 -9 -4 -18 -29 -20 -44 -6 -35 5 3
7 0 4 -8 -3 -8 2 -22 11 -31 9 -9 15 -22 12 -29 -3 -8 -7 -6 -12 5 -6 16 -9
16 -26 -5 -10 -12 -18 -17 -19 -10 0 6 7 19 16 28 13 12 14 19 5 28 -8 8 -11
7 -11 -7 0 -9 -4 -15 -9 -12 -4 3 -8 -57 -8 -134 0 -77 3 -138 5 -135 11 11
33 -36 27 -56 -5 -15 -4 -19 5 -14 7 5 10 19 6 37 -3 18 -2 27 4 23 6 -3 10
-17 10 -31 0 -13 5 -24 10 -24 19 0 10 -38 -10 -43 -11 -3 -20 -13 -20 -22 0
-10 -5 -13 -12 -9 -7 4 -8 3 -4 -4 3 -6 -3 -16 -14 -22 -11 -6 -18 -15 -15
-21 4 -5 -4 -9 -17 -9 -27 0 -124 -93 -114 -109 12 -18 31 -13 66 19 18 17 38
30 44 30 6 0 3 5 -7 11 -9 5 -23 7 -30 4 -6 -4 -4 0 5 8 10 8 16 16 13 18 -2
3 6 5 20 5 13 0 21 -4 19 -8 -3 -5 -9 -6 -14 -3 -5 3 -11 1 -15 -4 -7 -12 30
-6 47 8 46 37 73 65 70 72 -5 19 15 8 26 -13 10 -22 11 -22 12 -3 2 17 3 16
10 -5 8 -24 8 -23 9 8 1 18 -3 31 -8 27 -5 -3 -13 0 -17 6 -4 8 3 9 25 4 38
-8 121 14 121 32 0 17 10 16 31 -3 15 -13 16 -21 8 -36 -8 -15 -8 -19 0 -14 7
5 11 -8 11 -38 0 -44 -12 -67 -25 -46 -3 5 -1 10 4 10 6 0 11 5 11 10 0 7 -6
7 -20 0 -11 -6 -20 -7 -20 -2 0 5 10 14 23 21 21 11 21 11 -4 6 -19 -3 -29 0
-33 11 -6 16 -29 14 -74 -8 -21 -11 -21 -12 19 -35 23 -13 46 -23 53 -23 6 0
-8 10 -31 22 -24 12 -41 23 -39 26 2 2 29 -10 60 -27 39 -22 68 -31 102 -31
36 0 45 -3 41 -14 -4 -10 -1 -13 9 -9 7 3 14 10 14 15 0 7 16 8 41 5 23 -3 49
-2 58 3 9 4 35 16 59 26 45 18 53 31 8 15 -14 -6 -26 -9 -26 -7 0 7 78 45 83
40 2 -3 19 12 36 32 18 20 30 39 27 42 -4 3 -12 -3 -19 -13 -13 -16 -14 -16
-20 -1 -4 9 -3 16 1 16 9 0 32 50 32 70 0 9 -9 26 -20 38 -20 21 -27 62 -11
62 5 0 12 -11 15 -25 3 -13 19 -38 35 -54 l29 -30 8 42 c5 34 8 38 15 22 5
-13 8 -15 8 -5 0 8 -3 22 -9 30 -6 9 -5 17 3 22 9 6 9 10 -2 17 -11 7 -10 11
5 20 18 10 18 12 2 21 -10 6 -18 18 -18 26 0 8 5 12 10 9 6 -3 10 4 10 16 0
12 -3 19 -7 15 -4 -3 -15 26 -25 65 -20 75 -50 126 -83 139 -20 7 -25 6 -83
-24 -39 -21 -62 -15 -84 22 -23 38 -84 59 -128 43 -27 -9 -39 -7 -83 14 -43
21 -47 25 -22 22 17 -2 23 -2 15 1 -12 4 -11 6 5 13 31 12 -5 9 -40 -3z m18
-48 c9 0 17 -4 17 -10 0 -5 -11 -10 -25 -10 -16 0 -25 -6 -25 -15 0 -8 -4 -15
-10 -15 -5 0 -10 7 -10 15 0 8 5 15 10 15 6 0 10 8 10 18 -1 14 -3 14 -19 -5
-20 -24 -46 -30 -56 -13 -3 5 0 7 9 4 9 -3 21 5 32 21 15 23 18 24 34 10 9 -8
24 -15 33 -15z m-121 -39 c-21 -13 11 -81 38 -81 25 0 92 48 84 61 -10 16 40
24 129 21 87 -3 87 -3 87 -30 -1 -25 -2 -25 -14 -9 -17 23 -25 22 -35 -5 -14
-36 3 -48 47 -32 64 23 100 18 134 -18 16 -17 28 -25 26 -17 -2 9 4 13 15 11
14 -2 17 2 12 25 -5 25 -4 26 4 6 6 -13 15 -23 21 -23 19 0 10 -39 -10 -45
-11 -3 -20 -13 -20 -21 0 -8 -6 -14 -12 -13 -31 4 -59 -2 -53 -11 3 -5 1 -10
-6 -10 -7 0 -4 -7 7 -15 16 -12 17 -14 2 -15 -9 0 -25 10 -35 23 -23 29 -63
33 -63 7 0 -10 -6 -21 -12 -23 -7 -3 3 -3 23 0 41 6 89 -15 112 -48 14 -19 15
-19 13 12 -1 18 -7 34 -14 37 -6 2 -12 8 -12 14 0 6 7 8 14 5 10 -4 13 -1 9 9
-4 10 0 12 12 8 16 -7 17 -18 12 -118 -5 -85 -3 -117 7 -135 14 -24 6 -55 -17
-72 -5 -3 -1 -14 9 -23 16 -16 16 -19 0 -34 -16 -16 -16 -15 -14 8 4 34 -24
37 -56 5 -14 -14 -32 -23 -39 -20 -6 4 -4 0 5 -8 10 -8 15 -17 11 -20 -10 -11
-25 -8 -18 3 3 6 -5 10 -19 10 -35 0 -56 10 -56 27 0 8 4 11 10 8 5 -3 20 1
32 9 12 9 37 16 55 16 18 0 33 4 33 9 0 5 9 11 20 14 11 3 20 10 20 16 0 6 -8
8 -17 4 -17 -6 -17 -5 -2 13 9 10 16 35 16 54 0 28 -2 31 -9 14 -5 -11 -22
-28 -38 -39 -28 -19 -28 -19 -9 -36 20 -17 20 -17 -1 -24 -22 -7 -53 11 -44
26 8 13 -9 10 -29 -5 -10 -8 -13 -16 -8 -17 6 -3 7 -10 2 -18 -5 -8 -16 -11
-26 -7 -14 5 -15 9 -5 21 7 8 9 15 4 16 -5 0 0 4 11 9 18 8 17 9 -7 9 -15 1
-30 6 -33 11 -4 6 -12 7 -18 4 -7 -4 -9 -3 -4 1 4 5 0 18 -8 31 -13 20 -12 23
3 29 15 5 14 9 -8 26 -14 12 -19 18 -12 14 6 -3 12 -2 12 4 0 5 -6 12 -12 14
-9 4 -8 6 2 6 18 1 25 47 10 56 -6 3 -10 14 -10 23 0 15 2 15 11 2 9 -13 10
-13 6 0 -2 8 -11 14 -21 12 -9 -2 -16 2 -16 8 0 5 5 10 10 10 6 0 10 10 10 21
0 18 -2 19 -15 9 -8 -7 -15 -18 -15 -26 0 -23 -23 -64 -32 -58 -5 4 -4 -3 3
-15 10 -14 15 -17 21 -8 5 8 8 5 9 -8 1 -11 3 -31 4 -45 3 -31 15 -63 29 -73
14 -9 -25 -4 -41 6 -7 4 -14 -1 -18 -13 -4 -12 -15 -20 -28 -20 -18 0 -19 -2
-7 -10 10 -6 22 -4 37 6 20 13 23 13 23 -1 0 -8 5 -15 12 -15 6 0 9 -3 5 -6
-10 -10 -137 -12 -143 -3 -3 5 1 7 8 6 7 -2 10 -2 6 0 -12 7 -22 -1 -25 -20
-2 -12 1 -16 9 -11 7 4 8 3 4 -4 -9 -16 -36 -3 -29 14 3 8 -1 14 -8 14 -11 0
-11 3 1 10 12 8 11 10 -6 10 -12 0 -27 -7 -34 -15 -11 -13 -10 -14 4 -9 12 5
15 2 10 -10 -3 -9 -10 -13 -15 -10 -5 3 -9 1 -9 -4 0 -5 -6 -9 -14 -9 -20 0
-9 27 23 56 18 16 20 21 8 17 -10 -3 -16 -2 -13 3 3 5 -1 14 -9 21 -13 10 -15
8 -15 -13 0 -29 -18 -46 -30 -27 -4 7 -5 21 -2 32 4 15 7 17 13 6 6 -8 9 1 10
27 1 22 2 45 4 50 1 6 3 15 3 22 1 6 9 18 16 26 13 13 13 17 0 33 -14 17 -15
17 -10 2 3 -10 -4 -37 -14 -60 -11 -24 -20 -35 -20 -26 0 9 -3 25 -6 35 -4 14
-4 15 4 4 17 -23 33 20 22 58 -10 34 -3 71 10 51 4 -6 7 2 7 19 0 20 -4 28
-14 24 -7 -3 -13 0 -13 6 0 6 4 11 9 11 5 0 17 3 25 6 13 5 15 2 9 -12 -6 -16
-5 -17 9 -4 9 8 14 18 12 22 -2 3 4 9 13 11 10 3 -3 3 -29 1 -29 -3 -48 -1
-48 6 0 5 5 10 10 10 15 0 12 36 -5 50 -17 14 -4 50 18 50 9 0 8 -3 -1 -9z
m62 -17 c22 -9 10 -24 -20 -24 -23 0 -31 10 -17 23 8 9 17 9 37 1z m486 -15
c0 -14 -17 -10 -23 5 -4 10 -1 13 9 9 7 -3 14 -9 14 -14z m25 -30 c11 -17 0
-20 -21 -4 -17 13 -17 14 -2 15 9 0 20 -5 23 -11z m25 -101 c0 -17 -3 -19 -9
-9 -8 13 -9 -14 -2 -149 2 -32 5 -40 10 -26 5 13 10 16 15 8 4 -6 1 -24 -7
-38 l-14 -27 -7 29 c-4 16 -12 32 -17 35 -13 8 -21 102 -13 157 5 32 11 42 25
42 13 0 19 -7 19 -22z m-656 -54 c-3 -24 -1 -22 11 11 l15 40 -6 -40 c-4 -22
-7 -48 -6 -58 0 -9 -4 -15 -9 -11 -6 3 -7 -5 -2 -23 8 -31 8 -92 -1 -101 -13
-13 -17 12 -21 122 -3 97 -2 114 10 103 7 -7 11 -27 9 -43z m546 -14 c0 -5 -4
-10 -10 -10 -5 0 -10 5 -10 10 0 6 5 10 10 10 6 0 10 -4 10 -10z m-247 -20 c3
-11 1 -18 -4 -14 -5 3 -9 12 -9 20 0 20 7 17 13 -6z m247 -178 c0 -4 -10 -13
-22 -21 -23 -14 -23 -14 -4 8 20 22 26 25 26 13z m-180 -52 c8 -5 11 -10 5
-10 -5 0 -17 5 -25 10 -8 5 -10 10 -5 10 6 0 17 -5 25 -10z m-4 -21 c3 -5 -6
-9 -20 -9 -16 0 -26 6 -26 14 0 15 36 11 46 -5z m-356 -34 c-7 -8 -9 -15 -4
-15 5 0 1 -5 -9 -11 -9 -6 -14 -16 -11 -22 5 -9 3 -9 -6 0 -11 10 -11 16 3 31
9 10 14 22 10 25 -3 4 2 7 12 7 14 0 15 -3 5 -15z m-46 -54 c3 -5 0 -11 -7
-14 -8 -3 -14 1 -14 9 0 16 13 19 21 5z m471 -31 c0 -8 -10 -16 -22 -18 -18
-3 -23 2 -23 18 0 16 5 21 23 18 12 -2 22 -10 22 -18z m-562 -37 c11 -11 -34
-52 -50 -46 -11 4 -10 10 8 29 24 25 31 28 42 17z"/>
<path d="M14068 11506 c-24 -18 -23 -31 5 -43 20 -9 22 -8 24 23 2 37 -3 40
-29 20z"/>
<path d="M14126 11470 c-4 -27 -11 -50 -16 -50 -6 0 -10 6 -10 13 0 8 -3 8 -9
-2 -7 -10 -4 -19 7 -27 14 -10 20 -8 35 14 l19 27 -6 -34 c-3 -19 -3 -31 1
-28 3 4 14 -5 24 -19 l17 -26 -5 48 c-3 27 -10 57 -14 66 -5 9 -9 28 -9 42 0
49 -27 29 -34 -24z"/>
<path d="M14190 11429 c0 -5 5 -7 10 -4 6 3 10 8 10 11 0 2 -4 4 -10 4 -5 0
-10 -5 -10 -11z"/>
<path d="M14005 11353 c-11 -26 -13 -53 -3 -47 4 3 8 -1 8 -8 0 -9 4 -8 14 2
9 9 12 26 9 43 -6 31 -17 35 -28 10z m19 -28 c3 -8 1 -15 -3 -15 -5 0 -11 7
-15 15 -3 8 -1 15 3 15 5 0 11 -7 15 -15z"/>
<path d="M14320 11359 c0 -5 5 -7 10 -4 6 3 10 8 10 11 0 2 -4 4 -10 4 -5 0
-10 -5 -10 -11z"/>
<path d="M14040 11351 c0 -6 4 -13 10 -16 6 -3 7 1 4 9 -7 18 -14 21 -14 7z"/>
<path d="M14285 11249 c4 -6 1 -10 -6 -8 -31 4 -50 -1 -43 -12 5 -8 1 -8 -14
0 -11 6 -24 11 -27 11 -12 0 22 -28 41 -34 10 -3 2 -3 -18 0 -30 4 -38 2 -38
-10 0 -9 12 -19 28 -22 15 -4 33 -11 39 -16 7 -6 25 -7 40 -3 27 6 27 7 8 21
-19 15 -19 15 7 9 39 -10 48 18 18 51 -23 24 -47 34 -35 13z m-6 -33 c9 -11 8
-15 -6 -20 -10 -4 -14 -4 -10 0 4 4 2 13 -4 21 -7 8 -8 13 -1 13 5 0 15 -6 21
-14z m-36 -33 c-7 -2 -19 -2 -25 0 -7 3 -2 5 12 5 14 0 19 -2 13 -5z m44 -19
c-3 -3 -12 -4 -19 -1 -8 3 -5 6 6 6 11 1 17 -2 13 -5z"/>
<path d="M13990 11230 c-8 -5 -10 -10 -3 -10 12 0 12 -24 0 -36 -4 -4 -7 -12
-7 -18 0 -5 6 -1 14 9 8 11 12 24 9 29 -4 5 -1 6 5 2 9 -5 9 -13 2 -27 -12
-21 -1 -26 18 -7 9 9 12 9 12 -2 1 -12 3 -11 10 2 13 22 1 51 -17 44 -8 -4
-20 -3 -26 1 -7 4 -3 9 9 14 13 5 14 8 4 8 -8 0 -22 -4 -30 -9z"/>
<path d="M14310 11060 c0 -5 5 -10 11 -10 5 0 7 5 4 10 -3 6 -8 10 -11 10 -2
0 -4 -4 -4 -10z"/>
<path d="M13684 10866 c-10 -8 -16 -17 -13 -20 3 -3 14 3 24 14 21 23 17 26
-11 6z"/>
<path d="M9638 11559 c-35 -13 -68 -67 -68 -109 0 -117 219 -233 330 -175 35
18 50 43 50 85 0 73 -61 158 -138 191 -47 20 -129 24 -174 8z"/>
<path d="M9320 11512 c0 -10 83 -157 113 -200 51 -76 217 -241 293 -291 74
-50 221 -125 266 -136 29 -7 32 1 44 127 l7 67 -29 7 c-269 62 -387 130 -621
360 -40 39 -73 68 -73 66z"/>
<path d="M12746 11174 c-8 -21 -8 -21 9 -21 9 0 14 6 11 14 -3 7 0 13 6 13 7
0 8 -12 4 -32 -6 -30 -5 -31 9 -13 14 19 15 19 12 -5 -1 -19 2 -24 15 -22 9 1
20 -3 24 -9 5 -8 3 -10 -7 -4 -8 4 1 -8 20 -28 22 -23 39 -33 50 -30 9 4 13 2
8 -2 -9 -10 31 -55 50 -55 8 0 16 -7 20 -15 3 -9 24 -29 47 -45 22 -15 57 -43
76 -61 19 -18 36 -32 37 -31 10 6 31 -12 26 -22 -4 -6 -1 -6 9 2 13 10 17 10
22 -3 3 -9 2 -13 -4 -10 -6 3 -10 2 -10 -4 0 -21 21 -21 29 1 6 13 10 17 10
10 1 -7 5 -10 11 -7 5 3 7 0 4 -8 -3 -8 3 -20 12 -28 15 -13 16 -11 9 11 -7
24 -43 61 -55 56 -9 -4 -48 42 -41 50 3 4 0 4 -7 0 -11 -6 -8 -14 10 -35 l23
-26 -26 23 c-14 12 -29 19 -34 15 -4 -5 -3 2 3 13 10 19 7 25 -20 48 -18 15
-39 24 -46 21 -9 -3 -12 0 -9 9 3 8 -1 20 -9 26 -8 7 -14 9 -14 4 0 -5 -5 -1
-11 8 -6 11 -16 15 -26 11 -11 -4 -14 -3 -9 5 11 19 -3 35 -19 22 -9 -8 -15
-8 -20 0 -3 5 0 10 7 10 7 1 3 6 -9 13 -12 7 -22 17 -23 22 0 6 -9 9 -19 9
-11 -1 -18 4 -16 10 4 11 -107 106 -124 106 -5 0 -12 -7 -15 -16z m67 -49 c-3
-9 -8 -14 -10 -11 -3 3 -2 9 2 15 9 16 15 13 8 -4z m57 -45 c0 -5 -4 -10 -10
-10 -5 0 -10 5 -10 10 0 6 5 10 10 10 6 0 10 -4 10 -10z m45 -19 c-3 -6 3 -14
12 -20 13 -8 14 -10 4 -11 -11 0 -9 -4 5 -14 13 -10 23 -11 31 -4 9 7 13 7 13
0 0 -17 -27 -21 -47 -7 -10 7 -18 19 -18 27 0 7 -8 13 -17 13 -9 0 -20 4 -25
9 -4 5 -3 7 2 3 6 -3 17 -2 25 4 19 11 23 11 15 0z m92 -77 c-3 -4 -2 -16 4
-26 9 -16 8 -19 -3 -16 -18 6 -19 48 -1 48 4 0 3 -3 0 -6z m38 -24 c3 -5 1
-10 -4 -10 -6 0 -11 5 -11 10 0 6 2 10 4 10 3 0 8 -4 11 -10z m30 -40 c-3 -5
-11 -10 -16 -10 -6 0 -7 5 -4 10 3 6 11 10 16 10 6 0 7 -4 4 -10z m20 -20 c-3
-5 -11 -10 -16 -10 -6 0 -7 5 -4 10 3 6 11 10 16 10 6 0 7 -4 4 -10z m20 -30
c3 -6 -1 -7 -9 -4 -18 7 -21 14 -7 14 6 0 13 -4 16 -10z"/>
<path d="M14484 11096 c4 -11 0 -24 -11 -32 -16 -12 -16 -13 -2 -14 22 0 32
27 18 48 -9 15 -10 15 -5 -2z"/>
<path d="M13827 11056 c-4 -10 -1 -13 8 -9 8 3 12 9 9 14 -7 12 -11 11 -17 -5z"/>
<path d="M14030 10986 c0 -2 7 -7 16 -10 8 -3 12 -2 9 4 -6 10 -25 14 -25 6z"/>
<path d="M14198 10873 c7 -3 16 -2 19 1 4 3 -2 6 -13 5 -11 0 -14 -3 -6 -6z"/>
<path d="M8462 10842 c-30 -9 -51 -20 -47 -24 4 -3 -1 -208 -11 -455 -9 -246
-18 -623 -18 -838 -1 -379 0 -391 20 -435 28 -58 104 -135 279 -280 171 -143
184 -156 224 -210 49 -68 47 -84 -53 -545 -55 -253 -61 -313 -41 -377 22 -65
116 -252 231 -458 85 -153 275 -460 315 -512 29 -36 15 -57 -18 -26 -75 69
-422 665 -535 917 -50 110 -50 168 -2 396 95 452 104 501 98 533 -8 40 -74
114 -175 198 -251 206 -316 271 -356 352 l-26 54 0 317 c1 175 9 553 19 840 9
286 15 523 12 526 -8 8 -407 -126 -585 -196 -207 -82 -474 -218 -621 -315 -76
-50 -151 -111 -213 -173 -86 -86 -101 -108 -152 -211 -67 -135 -132 -327 -191
-565 l-43 -170 -69 -20 c-148 -43 -247 -112 -324 -227 -97 -145 -152 -306
-185 -541 -12 -85 -15 -337 -15 -1547 0 -795 3 -1455 6 -1468 6 -19 9 -21 23
-10 14 12 15 11 2 -5 -13 -17 -16 -17 -26 -3 -9 12 -14 13 -23 4 -9 -9 -12 -9
-12 2 0 13 -2 13 -10 0 -5 -8 -10 -10 -10 -5 0 9 -274 11 -1330 7 -162 -1
-310 1 -329 5 -25 4 -32 3 -26 -7 5 -9 3 -10 -11 -3 -22 11 -780 11 -790 0 -4
-4 -14 -2 -21 5 -11 9 -16 9 -22 -1 -7 -10 -13 -10 -29 -2 -14 7 -111 10 -299
9 l-278 -3 285 -5 285 -5 -283 -3 -283 -2 2 -135 1 -135 118 0 c86 0 122 4
132 13 8 9 21 11 33 6 18 -7 18 -8 -4 -8 l-24 -1 6 -137 c4 -75 7 -338 7 -585
l0 -448 2725 0 2725 0 2 490 3 490 4933 0 4932 0 0 85 0 85 -4813 0 c-3571 0
-4816 3 -4824 11 -7 7 -49 12 -105 12 l-93 0 92 6 c50 3 94 8 96 11 3 3 6 118
8 255 l4 250 -190 16 c-469 40 -869 105 -1270 205 -228 58 -425 123 -425 141
0 19 27 16 111 -13 152 -52 449 -127 669 -169 47 -9 117 -23 155 -30 212 -42
677 -96 985 -114 130 -8 415 -7 615 3 28 1 93 3 146 4 l96 2 7 52 c9 65 60
227 93 293 41 81 107 167 157 205 l47 34 -33 12 c-404 145 -512 182 -521 178
-7 -2 -77 19 -157 47 -80 28 -190 66 -245 84 -435 144 -1144 387 -1365 468
-288 106 -330 124 -330 144 0 19 20 16 101 -17 182 -73 314 -119 320 -112 9
10 249 2192 249 2266 0 39 26 69 36 42 6 -16 -14 -236 -57 -621 -11 -99 -26
-241 -34 -315 -16 -158 -82 -755 -90 -820 -23 -190 -65 -573 -63 -575 4 -4
352 -123 718 -247 179 -60 457 -154 618 -209 162 -55 296 -98 298 -96 12 11
-66 1046 -117 1567 -86 881 -167 1304 -365 1896 -115 346 -353 915 -383 913
-9 0 -40 -8 -69 -17z m-1602 -5466 c0 -11 -19 -15 -25 -6 -3 5 1 10 9 10 9 0
16 -2 16 -4z m1840 -6 c22 -7 21 -8 -12 -9 -21 -1 -38 4 -38 9 0 11 14 11 50
0z m-3732 -7 c-10 -2 -26 -2 -35 0 -10 3 -2 5 17 5 19 0 27 -2 18 -5z m1906
-54 c-3 -5 -10 -7 -15 -3 -5 3 -7 10 -3 15 3 5 10 7 15 3 5 -3 7 -10 3 -15z
m-3861 -196 c-23 -2 -64 -2 -90 0 -26 2 -7 3 42 3 50 0 71 -1 48 -3z m150 -10
c-7 -2 -19 -2 -25 0 -7 3 -2 5 12 5 14 0 19 -2 13 -5z m5377 -1 c0 -4 -16 -6
-35 -4 -19 2 -35 6 -35 8 0 2 16 4 35 4 19 0 35 -4 35 -8z"/>
<path d="M13596 10811 c-12 -13 -16 -27 -11 -43 7 -22 7 -22 -8 -3 -14 19 -16
18 -56 -18 -23 -20 -39 -38 -36 -38 3 -1 9 -2 14 -3 5 0 13 -4 17 -8 3 -4 -4
-5 -16 -3 -13 2 -35 -4 -49 -14 -14 -10 -39 -21 -56 -25 -29 -7 -29 -7 -10 9
l20 16 -20 -3 c-12 -2 -19 2 -17 10 1 6 -3 12 -9 12 -5 0 -7 6 -3 13 4 7 3 9
-2 4 -5 -5 -9 -14 -9 -19 0 -6 -7 -13 -15 -15 -13 -4 -13 -3 0 7 13 10 13 11
-1 7 -9 -3 -16 1 -16 8 0 7 7 11 15 7 9 -3 13 0 11 7 -3 7 -8 12 -12 12 -4 -1
-14 -1 -22 -1 -8 0 -15 -4 -15 -9 0 -14 52 -73 58 -67 3 3 11 1 18 -5 10 -8
22 -8 44 -1 18 7 30 7 30 1 0 -5 -10 -9 -22 -10 -22 -1 -22 -1 2 -10 21 -7 20
-8 -10 -4 -32 4 -34 4 -16 -10 17 -13 23 -13 49 4 28 17 37 36 18 36 -5 0 -12
3 -15 8 -3 4 -3 5 1 2 3 -3 15 2 25 12 10 9 18 11 18 5 0 -6 -6 -13 -12 -15
-8 -3 -6 -6 5 -6 9 -1 17 6 17 16 0 9 3 13 6 10 9 -9 66 32 59 43 -3 4 4 10
14 13 13 3 31 -8 56 -33 24 -24 43 -36 53 -33 10 5 13 2 8 -6 -11 -18 52 -81
72 -74 10 5 13 2 8 -6 -11 -18 52 -81 72 -74 10 5 13 2 8 -6 -11 -18 52 -81
72 -74 10 5 13 2 8 -6 -11 -17 51 -81 70 -74 9 3 12 0 9 -9 -3 -8 4 -23 16
-33 21 -19 21 -19 35 0 13 18 1 32 -183 217 -109 109 -202 197 -206 195 -15
-5 -6 -22 9 -19 17 3 19 -15 2 -20 -6 -2 -19 3 -28 11 -14 14 -14 17 -1 27 8
6 11 16 7 23 -6 9 -12 7 -22 -6 -14 -17 -15 -17 -9 3 3 14 1 21 -9 21 -8 0
-12 -7 -9 -16 3 -11 0 -10 -11 3 -21 26 -20 35 2 30 9 -3 26 2 37 11 20 16 20
16 -1 6 -13 -6 -25 -6 -35 0 -12 8 -12 9 1 7 8 -2 16 1 18 7 6 18 -14 16 -32
-4z m-45 -65 c-8 -9 -8 -15 -1 -18 5 -1 0 -9 -12 -17 -22 -13 -22 -13 -8 4 14
17 13 18 -5 11 -17 -6 -17 -4 4 18 25 26 43 28 22 2z m171 -79 c-2 -11 2 -15
12 -11 8 3 17 0 22 -7 5 -8 3 -10 -6 -4 -8 5 -11 3 -8 -6 3 -8 11 -13 17 -12
17 4 50 -28 44 -44 -3 -9 0 -11 10 -7 8 3 18 0 23 -7 5 -8 3 -10 -6 -4 -8 5
-11 3 -8 -6 3 -8 11 -13 17 -12 17 4 50 -28 44 -44 -3 -9 0 -11 10 -7 8 3 18
0 23 -7 5 -8 3 -10 -6 -4 -8 5 -11 3 -8 -6 3 -8 11 -13 17 -12 17 4 50 -28 44
-44 -3 -9 0 -11 10 -7 8 3 18 0 23 -7 5 -8 3 -10 -6 -4 -8 5 -11 3 -8 -6 3 -8
11 -13 17 -12 17 4 50 -28 44 -44 -4 -9 0 -11 13 -6 17 6 17 5 6 -10 -13 -15
-15 -15 -30 -1 -13 13 -13 17 -1 25 14 9 12 10 -23 13 -6 1 -24 14 -40 30 -23
22 -26 31 -16 37 13 9 11 10 -24 13 -6 1 -24 14 -40 30 -23 22 -26 31 -16 37
13 9 11 10 -24 13 -6 1 -24 14 -40 30 -23 22 -26 31 -16 37 13 9 11 10 -24 13
-19 2 -72 60 -58 64 9 3 9 7 -1 14 -11 8 -11 9 1 5 8 -2 14 -11 12 -20z m-358
5 c3 -5 -1 -9 -9 -9 -8 0 -12 4 -9 9 3 4 7 8 9 8 2 0 6 -4 9 -8z"/>
<path d="M10053 10797 c24 -63 82 -259 111 -372 92 -367 164 -821 230 -1455
79 -747 107 -1235 127 -2210 6 -305 13 -557 15 -560 3 -2 72 -8 155 -12 184
-9 357 -37 451 -73 10 -4 13 30 11 167 -2 95 -9 749 -18 1453 -8 704 -16 1390
-17 1525 -3 220 -1 245 13 248 15 3 17 -44 23 -515 3 -285 8 -635 11 -778 3
-143 8 -537 11 -875 3 -338 7 -655 9 -705 1 -49 3 -190 4 -313 l1 -223 31 -17
c54 -30 158 -112 219 -172 72 -71 128 -154 151 -223 l18 -52 67 0 68 0 116
255 c64 140 128 282 143 315 16 33 58 126 94 208 l67 147 -126 128 c-69 70
-133 142 -142 160 -15 29 -20 112 -36 615 -39 1218 -72 1620 -166 2042 -103
463 -229 671 -505 839 -135 82 -382 194 -634 288 -174 65 -299 108 -303 103
-3 -2 11 -31 30 -63 44 -73 225 -436 295 -592 29 -63 89 -196 133 -295 179
-395 196 -442 188 -524 -5 -54 -12 -67 -150 -277 -51 -77 -108 -171 -127 -208
-41 -81 -49 -57 128 -356 132 -221 147 -261 138 -378 -16 -219 -175 -893 -278
-1177 -48 -133 -54 -144 -69 -129 -9 9 2 50 39 158 85 247 158 532 236 929 29
148 36 206 33 270 -4 99 -5 100 -239 494 -33 54 -49 93 -49 115 0 37 71 185
121 253 45 60 138 205 161 249 26 52 26 116 -2 191 -20 52 -89 208 -318 715
-61 135 -216 447 -285 572 l-42 78 -73 24 c-47 16 -72 21 -69 13z"/>
<path d="M13260 10781 c0 -6 7 -14 15 -17 8 -4 15 -9 15 -13 0 -13 -40 -5 -60
12 -11 10 -22 12 -25 6 -4 -5 -11 -7 -16 -4 -10 7 -59 -42 -59 -59 1 -6 9 -1
20 12 11 13 21 18 25 12 3 -5 1 -10 -5 -10 -7 0 -10 -6 -7 -13 5 -14 -26 -17
-40 -4 -9 9 -73 -59 -73 -77 0 -8 -4 -18 -10 -21 -6 -4 -7 1 -3 12 4 9 -11 -3
-33 -27 -21 -25 -43 -48 -49 -52 -6 -5 -5 -8 3 -8 6 0 12 -7 12 -16 0 -14 -3
-14 -15 -4 -13 11 -21 6 -53 -26 -68 -71 -83 -91 -70 -92 7 0 22 -2 33 -4 17
-3 20 3 20 34 1 20 4 40 8 44 4 4 7 2 7 -5 0 -7 5 -9 10 -6 6 4 8 11 5 16 -4
5 -1 9 5 9 6 0 10 -8 8 -17 -2 -10 -11 -17 -21 -17 -18 2 -23 -11 -8 -20 11
-7 53 39 44 49 -5 4 -3 5 4 1 7 -4 17 3 24 16 7 13 19 28 27 34 12 9 12 13 2
19 -8 5 -11 4 -7 -2 3 -5 0 -10 -8 -10 -11 0 -10 5 2 24 17 26 25 30 17 9 -3
-7 2 -16 10 -19 9 -4 28 9 50 34 38 42 43 54 24 65 -7 5 -9 2 -6 -7 3 -9 -8
-31 -27 -52 -32 -36 -32 -36 -32 -11 0 15 3 21 6 15 5 -7 15 -3 31 14 14 15
18 25 11 25 -11 0 -11 3 -1 14 6 8 19 12 27 9 12 -5 15 -2 11 9 -4 8 -2 21 4
29 8 11 9 11 5 -2 -3 -9 0 -22 6 -28 8 -8 8 -11 -1 -11 -7 0 -12 -5 -12 -11 0
-8 5 -8 15 1 8 7 13 16 10 20 -5 8 24 37 34 33 3 -2 6 2 6 8 0 5 11 19 25 29
26 20 51 14 78 -19 8 -10 11 -10 6 -2 -4 8 0 19 9 26 15 11 14 14 -8 35 -14
13 -25 18 -25 11z m-73 -36 c0 -8 -4 -12 -9 -9 -5 3 -6 10 -3 15 9 13 12 11
12 -6z m-242 -245 c3 -5 1 -10 -4 -10 -6 0 -11 5 -11 10 0 6 2 10 4 10 3 0 8
-4 11 -10z m-68 -97 c0 -9 -4 -10 -14 -2 -7 6 -13 12 -13 14 0 1 6 2 13 2 8 0
14 -6 14 -14z"/>
<path d="M3660 10754 c0 -17 121 -256 224 -441 64 -115 100 -194 156 -333 21
-52 81 -203 135 -335 122 -300 183 -478 245 -720 52 -199 104 -448 115 -550 4
-33 9 -63 11 -66 2 -3 10 -62 18 -130 25 -200 39 -474 32 -609 -7 -145 -35
-473 -42 -510 -5 -23 -7 -21 -23 20 -28 74 -97 192 -217 375 -71 107 -359 383
-380 363 -2 -3 62 -72 143 -154 119 -119 166 -175 235 -279 102 -153 153 -247
202 -369 32 -78 36 -99 36 -177 l0 -89 33 0 32 0 1 173 c0 94 8 244 17 332 36
355 31 578 -19 980 -25 195 -26 219 -15 335 21 232 50 345 171 663 52 139 70
208 70 275 0 90 -23 58 -42 -59 -18 -113 -41 -190 -119 -391 -58 -150 -96
-293 -106 -391 -3 -37 -9 -70 -13 -72 -4 -2 -12 26 -19 63 -21 117 -120 477
-173 630 -27 80 -82 221 -120 312 -38 91 -94 228 -125 305 -30 77 -79 191
-109 253 -62 133 -333 612 -346 612 -4 0 -8 -7 -8 -16z"/>
<path d="M15970 10469 c-13 -6 -26 -11 -28 -13 -4 -4 97 -257 108 -269 11 -13
75 37 78 62 5 32 -55 192 -80 214 -22 19 -41 20 -78 6z"/>
<path d="M15867 10400 c-62 -73 -80 -235 -42 -370 71 -249 216 -456 354 -505
46 -16 101 -20 101 -7 0 4 -23 64 -52 134 -40 98 -56 128 -72 130 -25 4 -99
112 -125 184 -24 64 -42 187 -29 195 6 4 -2 35 -18 75 -39 98 -82 194 -88 194
-2 0 -15 -13 -29 -30z"/>
<path d="M16996 10412 c-3 -3 -6 -18 -6 -34 l0 -28 -255 0 -255 0 0 -75 0 -75
255 0 255 0 0 -35 c0 -19 4 -35 10 -35 11 0 252 141 248 145 -15 15 -248 142
-252 137z"/>
<path d="M12815 10380 c-11 -4 -29 -18 -40 -30 l-20 -23 21 11 c12 6 25 8 29
4 5 -4 6 0 3 8 -4 11 1 16 13 17 16 2 17 -1 6 -18 -6 -10 -18 -17 -25 -14 -7
2 -15 -2 -18 -10 -3 -8 -13 -11 -22 -8 -13 4 -12 2 3 -11 20 -17 20 -17 -4
-10 -16 4 -21 3 -17 -5 4 -6 12 -11 18 -11 11 0 98 80 98 91 0 12 -24 17 -45
9z"/>
<path d="M16243 9812 c-13 -2 -23 -10 -23 -20 0 -27 102 -262 114 -262 21 0
54 30 60 54 6 25 -38 155 -69 202 -14 22 -44 32 -82 26z"/>
<path d="M3370 9607 c0 -8 13 -32 29 -53 75 -103 121 -123 446 -198 221 -51
346 -193 461 -524 16 -46 30 -79 32 -74 7 22 -63 243 -103 326 -48 100 -98
166 -162 215 -79 61 -140 84 -340 126 -161 34 -222 62 -294 136 -62 62 -69 67
-69 46z"/>
<path d="M4450 8432 c0 -12 59 -66 65 -60 3 3 -8 20 -25 37 -33 32 -40 36 -40
23z"/>
<path d="M5057 8019 c-9 -6 -25 -24 -34 -42 -15 -27 -19 -68 -23 -264 l-5
-232 -46 -88 c-25 -48 -81 -137 -123 -198 -43 -60 -95 -146 -116 -190 -51
-105 -87 -255 -61 -255 11 0 23 33 56 150 29 104 64 168 200 368 118 173 127
202 128 457 2 197 2 201 29 247 27 49 26 64 -5 47z"/>
<path d="M10910 6066 c0 -8 26 -20 65 -31 180 -48 386 -198 485 -352 21 -34
40 -53 52 -53 59 0 -145 238 -277 323 -81 51 -159 89 -235 111 -66 20 -90 20
-90 2z"/>
<path d="M10780 5976 c0 -8 37 -26 98 -46 121 -41 226 -88 278 -126 42 -31
126 -120 144 -154 6 -11 20 -20 31 -20 20 0 20 1 -3 42 -64 117 -201 210 -417
283 -116 39 -131 41 -131 21z"/>
<path d="M10670 5876 c0 -10 15 -19 43 -26 171 -46 319 -113 384 -176 46 -43
73 -55 73 -32 0 21 -94 102 -156 135 -63 34 -241 97 -306 108 -31 6 -38 4 -38
-9z"/>
<path d="M10540 5685 l0 -55 278 0 c183 1 271 4 260 10 -36 21 -446 100 -520
100 -15 0 -18 -9 -18 -55z"/>
</g>
</svg>
